<svg width="152" height="260" viewBox="0 0 152 260" fill="none" xmlns="http://www.w3.org/2000/svg">
<path d="M97.5 0H0V259.5C0 259.5 17.2631 242.395 26 232.5C35.3599 221.9 43.565 216.085 55.5 208.5C71.4274 198.378 77.3468 195.542 93 185C107.165 175.461 111.267 171.363 122.5 158.5C132.942 146.543 135.786 137.585 144 124C149.753 114.486 148.894 100.417 151 89.5C152.184 83.3648 151 78.2484 151 72C151 61.0653 150.23 55.5883 147.5 45C142.324 24.9293 139.916 22.7389 122.5 11.5C106 0.852171 97.5 0 97.5 0Z" fill="#10BF0D"/>
</svg>
